<svg xmlns="http://www.w3.org/2000/svg" width="51" height="51" viewBox="0 0 507.99999 505.99998"><path d="M429.14 109.856l-.255.252c36.824 36.993 61.02 86.865 64.96 142.97 8.657 124.006-84.813 231.534-208.803 240.215-58.263 4.077-112.913-14.44-155.36-48.072l-.24.266c44.063 41.084 104.378 64.485 169.22 59.958 123.95-8.67 217.46-116.222 208.778-240.2-4.367-62.674-34.053-117.56-78.3-155.388M30.23 365.74c-7.147 3.984-8.76 10.017-5.095 19.27 3.388 8.46 8.722 12.11 14.374 9.86 4.54-1.813 5.292-5.744 3.402-15.91l-.795-3.93c-1.84-9.98-2.17-14.308-.966-18.61 1.18-4.804 3.932-7.953 8.14-9.648 10.206-4.077 19.828 2.21 25.572 16.53 6.193 15.5 2.858 27.15-9.213 32.164l-3.044-7.557c8.417-3.667 10.535-11.53 6.06-22.752-3.678-9.158-9.514-13.235-15.67-10.763-4.922 1.96-6.1 6.565-4.287 16.97l.7 4.366.69 3.84c1.31 7.756 1.468 10.483.713 13.765-.992 4.115-3.64 7.148-7.822 8.814-9.556 3.81-18.727-1.803-23.903-14.732-5.558-13.977-2.593-24.342 8.152-29.16l2.99 7.48M23.863 284.486l34.148-28.774.214 10.655-28.906 23.957 9.37 10.323 20.317-.438.185 8.312-58.05 1.31-.174-8.352 22.805-.502 3.165.026 2.963-.066-1.97-2.065-1.96-2.065-25.716-27.7L0 258.067l23.863 26.418M49.554 194.63l22.38 7.848-2.778 7.862-22.37-7.85-40.09 12.085 3.388-9.583 24.884-6.96 3.07-.85c1.257-.382 2.037-.502 4.222-.964-1.973-2.315-2.422-2.872-4.46-5.705l-15.367-20.806 3.217-9.132 23.904 34.055M88.838 88.096l-12.27 14.983 36.623 29.99-8.813 10.735-36.623-29.98-12.217 14.905-8.286-6.777 33.302-40.66 8.286 6.803M167.154 33.076l-29.305 17.14 6.273 10.668L170.99 45.16l5.03 8.577-26.88 15.723 7.2 12.35 29.872-17.472 5.426 9.265-41.876 24.472L120.47 47.98l41.268-24.156 5.416 9.252M279.524 55.616l-15.21.966-7.49-12.522-23.4 3.72-3.283 14.292-14.492 3.747 15.3-63.454L245.232.1l34.294 55.516zm-33.222-29.912c-3.176-5.32-4.422-7.69-6.26-11.792-.477 4.115-1.06 7.213-2.436 13.17l-2.422 11.078 16.849-2.713-5.73-9.743M372.757 74.212l-12.23-4.673 4.633-17.246c.54-2.013 1.255-4.805 2.302-8.313.928-3.638 1.787-6.485 2.45-8.563.714-2.33 1.43-4.752 2.196-7.253l1.376-4.143c-3.412 5.863-4.763 7.94-7.886 12.706-1.35 2.065-2.595 3.826-3.563 5.282L345.53 65.052l-10.546-2.766-3.31-27.715c-.225-1.414-.398-3.44-.57-6.192-.224-3.666-.397-6.42-.478-8.326-.08-1.563-.066-3.904-.026-7.03l-1.456 7.004c-1.706 7.664-2.488 10.97-4.79 20.105l-4.817 18.69-12.84-2.04L321.178 0l19.562 3.797 2.753 26.843c.714 6.314.833 11.582.555 19.06 2.224-4.276 2.98-5.693 5.494-9.623 1.682-2.633 3.164-4.844 4.5-6.844l15.26-21.93 18.532 6.273-15.077 56.636" fill="#1f508f"/><path d="M261.788 185.987c-7.055 6.166-20.98 19.535-34.453 32.466l-15.248 14.653c-12.468-2.265-24.764-3.35-37.457-3.35-28.3 0-54.16 7.784-65.98 19.828-4.513 4.606-6.75 9.636-6.63 14.904.316 13.672 15.948 20.554 20.726 22.354 25.122 9.37 46.18 6.644 68.308-8.83 12.27-8.56 26.973-22.327 38.423-33.313 8.922 2.064 19.072 4.698 29.98 7.902l10.044 2.94c-13.022 12.798-26.39 26.3-38.818 37.257l-.927.83c-17.26 15.196-29.714 26.194-47.727 30.206-12.68 2.805-21.667.118-24.658-1.708-.24.052-.635.608-.635.608 10.404 8.59 20.278 13.448 37.27 11.95 16.162-1.375 34.81-11.58 53.937-29.42l25.796-25.308 18.054-17.96c0 .09 36.517 10.705 36.517 10.705.304.08.674.186.674.186-.37 0-22.606 21.983-22.606 21.983l-19.404 19.31c-19.893 19.324-30.733 29.33-42.34 37.55-19.206 13.632-35.62 20.725-50.138 21.693-7.49.505-18.305-.027-27.36-5.32-.383-.094-.913.397-.913.397 9.782 8.444 21.827 18.477 42.5 17.893 23.454-.65 44.18-11.94 76.477-41.6 14.705-13.5 29.357-28.628 42.247-41.97l23.985-24.302c15.83 3.508 29.912 4.91 45.528 4.592 22.74-.436 42.183-11.33 42.448-23.77.172-9.172-7.372-14.11-11.872-17.022-3.745-2.435-13.95-8.074-28.006-8.074-17.046 0-34.836 7.53-52.837 22.343l-12.03 10.588c.12-.04-4.38-1.217-4.38-1.217l-33.422-9.344c9.85-9.187 18.253-17.088 25.824-23.8 18.254-16.266 38.49-22.94 50.283-23.68 8.604-.58 23.624.172 29.82 4.528.264-.053.674-.662.674-.662-16.425-14.056-30.664-15.922-42.404-15.922-11.582 0-30.11 3.692-52.81 21.27-9.252 7.16-21.27 19.178-33.884 31.858 0-.092-16.888-5.2-16.888-5.2l-4.077-1.27s-17.736-5.375-17.762-5.388c.396-.014 10.125-9.53 10.125-9.53 11.966-11.74 23.27-22.82 32.084-30.245 32.044-26.947 52.228-30.468 66.258-30.534 15.325-.066 27.527 3.11 36.238 9.41.265-.04.663-.61.663-.61-17.974-16.28-30.918-21.494-53.26-21.665-19.63-.138-43.045 10.782-65.955 30.807zm-125.87 96.064c-10.418-.7-15.487-4.922-15.487-12.89 0-1.072.704-26.458 58.886-29.397 6.63-.33 14.083-.556 25.333.74-.45.04-6.567 5.64-6.567 5.64l-3.666 3.295c-14.015 12.733-37.508 34.03-58.5 32.613zm235.474-20.66c16.716-11.265 30.694-17.287 39.337-16.967 5.123.17 11.25 1.72 11.25 8.047 0 6.47-6.17 11.966-18.305 16.267-10.656 3.81-26.948 4.79-44.75 2.752 4.87-4.41 8.973-7.73 12.467-10.1" fill="#1f508f"/></svg>